<?xml version="1.0" standalone="no"?>
<!DOCTYPE svg PUBLIC "-//W3C//DTD SVG 20010904//EN"
 "http://www.w3.org/TR/2001/REC-SVG-20010904/DTD/svg10.dtd">
<svg version="1.0" xmlns="http://www.w3.org/2000/svg"
 width="450.000000pt" height="450.000000pt" viewBox="0 0 450.000000 450.000000"
 preserveAspectRatio="xMidYMid meet">
<metadata>
Created by potrace 1.16, written by Peter Selinger 2001-2019
</metadata>
<g transform="translate(0.000000,450.000000) scale(0.100000,-0.100000)"
fill="#000000" stroke="none">
<path d="M1950 3160 c-31 -4 -65 -12 -76 -18 -67 -36 -122 -155 -110 -234 10
-60 47 -108 270 -340 112 -117 226 -240 254 -273 l50 -60 -242 -245 c-133
-135 -257 -266 -275 -293 -78 -114 -53 -245 62 -328 38 -27 46 -29 137 -29
l96 0 360 362 c364 367 432 446 441 518 13 98 -37 160 -618 758 l-188 192 -53
-1 c-29 -1 -78 -5 -108 -9z"/>
</g>
</svg>
