<?xml version="1.0" standalone="no"?>
<!DOCTYPE svg PUBLIC "-//W3C//DTD SVG 20010904//EN"
 "http://www.w3.org/TR/2001/REC-SVG-20010904/DTD/svg10.dtd">
<svg version="1.0" xmlns="http://www.w3.org/2000/svg"
 width="450.000000pt" height="450.000000pt" viewBox="0 0 450.000000 450.000000"
 preserveAspectRatio="xMidYMid meet">
<metadata>
Created by potrace 1.16, written by Peter Selinger 2001-2019
</metadata>
<g transform="translate(0.000000,450.000000) scale(0.100000,-0.100000)"
fill="#000000" stroke="none">
<path d="M2174 2948 c-396 -403 -563 -590 -584 -653 -18 -54 -7 -106 36 -172
22 -33 191 -212 398 -420 l360 -363 83 0 c93 0 141 15 187 58 44 42 66 98 66
173 0 57 -4 71 -29 105 -43 58 -146 172 -345 378 l-178 186 48 57 c55 66 163
181 340 363 172 179 201 236 170 343 -34 116 -98 156 -247 157 l-96 0 -209
-212z"/>
</g>
</svg>
