<svg height="512pt" viewBox="-12 0 512 512.00216" width="512pt" xmlns="http://www.w3.org/2000/svg"><path d="m488.730469 488.238281-25.507813-108.464843c-5.558594-23.628907-23.683594-41.722657-47.320312-47.234376l-45.40625-11.578124 4.160156-5.28125c3.09375-3.925782 4.453125-8.816407 3.832031-13.769532-.621093-4.957031-3.148437-9.359375-7.113281-12.394531-11.769531-9.015625-38.324219-25.472656-53.207031-34.539063 8.679687-10.894531 15.703125-23.917968 15.976562-40.351562 0-.050781-.027343-7.972656-.027343-7.972656.09375 0 7.722656-.675782 11.242187-2.777344 3.285156-1.957031 7.503906-5.941406 8.980469-13.847656 0 0 3.960937-22.273438 4-22.554688.242187-.070312 22.058594-7.542968 29.820312-11.824218 14.800782-8.167969 22.457032-17.761719 22.421875-28.363282-.03125-8.910156-8.472656-16.265625-25.800781-22.484375-12.886719-4.625-30.515625-8.613281-51.230469-11.59375l-5.738281-24.484375c-.945312-4.035156-4.984375-6.539062-9.011719-5.59375-4.035156.945313-6.539062 4.980469-5.59375 9.015625l8.792969 37.527344c-5.277344 4.503906-31.789062 12.210937-77.417969 12.371094-45.613281.148437-72.199219-7.371094-77.507812-11.839844 0 0 19.039062-83.84375 19.054687-83.917969 1.886719-8.296875 11.105469-13.003906 18.9375-9.648437l26.980469 11.570312c7.183594 3.078125 15.429687 3.09375 22.625.042969 0 0 28.742187-12.199219 28.765625-12.207031 7.796875-3.308594 16.941406 1.355469 18.867188 9.574219l2.867187 12.230468c.945313 4.035156 4.980469 6.542969 9.015625 5.589844 4.03125-.941406 6.535156-4.976562 5.589844-9.011719 0 0-2.863282-12.222656-2.863282-12.230469-4.019531-17.140624-23.105468-26.847656-39.335937-19.964843l-28.765625 12.207031c-3.453125 1.464844-7.410156 1.457031-10.851562-.019531 0 0-26.96875-11.5625-26.980469-11.566407-16.335938-7.003906-35.558594 2.835938-39.480469 20.113282l-16.085938 70.855468c-20.691406 3.125-38.296874 7.230469-51.152343 11.945313-17.285157 6.339844-25.671875 13.75-25.640625 22.660156.035156 10.097657 7.042968 19.238281 20.550781 27.054688 8.105469 4.691406 32.378906 12.890625 32.953125 13.050781.03125.183594 4.125 22.292969 4.125 22.292969 1.515625 7.835937 5.765625 11.789062 9.0625 13.726562 3.472656 2.039063 11.101562 2.699219 11.261719 2.699219 0 0 .027343 7.933594.027343 7.984375.375 15.890625 7.035157 28.542969 15.390626 39.15625-15.070313 9.167969-42.132813 25.90625-54.160157 35.121094-3.96875 3.039062-6.496093 7.441406-7.117187 12.394531-.621094 4.957031.738281 9.847656 3.832031 13.769531l4.527344 5.746094-46.875 12.296875c-23.59375 5.675781-41.597657 23.890625-46.992188 47.558594l-5.015625 22.007812c-.921875 4.039063 1.605469 8.058594 5.644532 8.980469.5625.128906 1.121093.191406 1.675781.191406 3.421875 0 6.511719-2.359375 7.304687-5.835937l5.019532-22.011719c4.121093-18.085937 17.890624-32.003906 35.9375-36.320313.050781-.011718.105468-.023437.15625-.039062l53.277343-13.976562 19.140625 24.285156-14.742187 19.667968c-2.378907 3.175782-1.875 7.652344 1.152343 10.21875 0 0 104.960938 88.988282 105 89.019532 1.355469 1.136718 3.078126 1.777344 4.847657 1.777344 1.730469 0 3.457031-.597657 4.851562-1.78125l104.996094-89.015626c3.027344-2.566406 3.53125-7.046874 1.152344-10.21875l-14.742188-19.667968 19.476563-24.710938 51.941406 13.242188c.050781.015625.105469.027344.15625.039062 18.074219 4.191406 31.941406 18.015625 36.1875 36.074219l25.511719 108.464844c.289062 1.226562.285156 5.328125-2.949219 5.328125h-61.121094l-19.324218-90.839844c-.863282-4.050781-4.847657-6.628906-8.898438-5.773438-4.050781.863282-6.636719 4.84375-5.777344 8.898438l18.660156 87.714844h-300.003906l17.84375-86.8125c.835938-4.054688-1.777344-8.023438-5.835937-8.855469-4.0625-.832031-8.023438 1.777344-8.859375 5.835937l-18.464844 89.832032h-61.351562c-2.777344 0-3.273438-2.492188-2.988282-3.746094l11.714844-51.394531c.921875-4.039063-1.609375-8.058594-5.644531-8.980469-4.042969-.921875-8.0625 1.605469-8.984375 5.644531 0 0-11.695313 51.328125-11.710938 51.394531-2.535156 11.117188 6.222656 22.089844 17.585938 22.089844h453.179687c11.828125 0 20.113281-12.757812 17.523438-23.765625zm-149.148438-300.898437c-.527343 2.832031-4.085937 4.371094-5.515625 4.328125l-.0625-18.304688c2.847656-.566406 5.644532-1.15625 8.382813-1.777343zm-245.949219-58.660156c1.921876-3.703126 18.316407-12.515626 58.167969-19.097657-1.210937 12.699219 17.601563 19.046875 30.863281 21.945313 16.316407 3.566406 38.457032 5.519531 61.265626 5.519531 23.316406-.082031 46.015624-2.195313 62.632812-5.945313 13.238281-2.992187 31.71875-9.320312 30.789062-22.160156h-.082031c39.898438 6.3125 56.355469 15.011719 58.300781 18.695313-.316406 6.238281-11.117187 16.460937-40.765624 25.238281-29.125 8.621094-68.0625 13.488281-109.636719 13.699219l-.957031.003906c-41.195313 0-80.695313-4.589844-109.644532-12.945313-29.703125-8.570312-40.574218-18.71875-40.933594-24.953124zm57.351563 59.355468-2.878906-15.5625c2.730469.589844 5.515625 1.152344 8.351562 1.683594l.0625 18.109375c-1.429687.050781-4.996093-1.464844-5.535156-4.230469zm20.484375-11.375c22.027344 3.21875 47.417969 4.921875 72.761719 4.921875v-.007812c26-.140625 52.296875-2.066407 74.78125-5.566407l.132812 38.4375c-.367187 20.046876-14.863281 34.519532-27.65625 47.289063 0 0-25.296875 25.285156-45.867187 25.636719-20.570313-.210938-46.039063-25.320313-46.039063-25.320313-12.882812-12.679687-27.476562-27.050781-27.980469-47.09375zm97.582031 217.914063-2.335937-18.945313 4.726562-2.246094 4.640625 4.550782zm-55.929687-16.644531 4.636718-4.546876 4.730469 2.246094-2.339843 18.945313zm14.472656-35.199219-20.75 20.34375-14.171875-33.558594c10.742187 6.691406 22.542969 11.148437 34.921875 13.214844zm4.691406 20.941406-3.113281-1.476563 15.429687-15.128906 15.425782 15.128906-3.113282 1.476563zm50.070313-.597656-21.011719-20.601563c12.671875-2.316406 24.710938-7.136718 35.574219-14.285156-.011719.296875-14.5625 34.886719-14.5625 34.886719zm-.199219-65.585938c.214844 6.484375 2.628906 12.988281 6.484375 18.179688-13.074219 8.59375-28.164063 13.203125-43.957031 13.382812-.066406 0-.132813 0-.199219.003907-15.882813.128906-31.09375-4.191407-44.371094-12.578126 4.023438-5.261718 6.527344-11.9375 6.714844-18.664062l-.015625-9.089844c10.078125 7.53125 22.425781 13.507813 38.769531 13.648438h.0625.117188c15.101562-.234375 26.761719-5.429688 36.355469-12.214844zm-132.3125 84.085938 13.960938-18.628907c2.039062-2.71875 1.992187-6.472656-.109376-9.140624l-37.371093-47.414063c-.792969-1.003906-.390625-4.1875.625-4.964844 12.15625-9.3125 41.953125-27.613281 55.164062-35.625 2.347657 2.414063 9.039063 9.007813 9.652344 9.609375l.074219 21.527344v.195312c0 .007813-.003906.113282-.003906.121094v.121094c-.148438 5.191406-8.550782 14.128906-9.140626 14.703125-2.578124 2.507813-7.949218 14.6875-3.816406 23.339844l46.566406 110.25zm94.757812 70.890625-12.753906-30.195313 5.378906-43.59375h14.746094l5.382813 43.59375zm80.792969-89.519532 13.960938 18.628907-75.601563 64.097656 46.566406-110.25c3.929688-8.222656-.335937-20.203125-3.945312-23.804687-.792969-.792969-9.066406-9.800782-9.226562-14.628907 0-.003906-.003907-.199219-.003907-.203125l-.070312-19.453125c1.414062-1.382812 8.9375-8.898437 10.945312-10.96875 14.035157 8.523438 42.359375 25.96875 54.230469 35.0625 1.019531.78125 1.417969 3.960938.625 4.96875l-37.367188 47.410157c-2.105468 2.667968-2.152343 6.421874-.113281 9.140624zm0 0"/></svg>