<svg height="480pt" viewBox="0 0 480.00145 480" width="480pt" xmlns="http://www.w3.org/2000/svg"><path d="m368 303.664062c0-17.648437-14.351562-32-32-32h-56v-68c0-19.847656-16.152344-36-36-36s-36 16.152344-36 36v32.6875l-35.3125 35.3125h-164.6875c-4.421875 0-8 3.582032-8 8v192c0 4.414063 3.578125 8 8 8h328c17.648438 0 32-14.351562 32-32 0-9.601562-4.335938-18.128906-11.054688-24 6.71875-5.875 11.054688-14.402343 11.054688-24 0-9.601562-4.335938-18.128906-11.054688-24 6.71875-5.875 11.054688-14.402343 11.054688-24 0-9.601562-4.335938-18.128906-11.054688-24 6.71875-5.875 11.054688-14.402343 11.054688-24zm-352-16h48v176h-48zm112 176h-48v-176h48zm208-128c8.824219 0 16 7.175782 16 16 0 8.824219-7.175781 16-16 16h-40v16h40c8.824219 0 16 7.175782 16 16 0 8.824219-7.175781 16-16 16h-40v16h40c8.824219 0 16 7.175782 16 16 0 8.824219-7.175781 16-16 16h-192v-176h32c2.128906 0 4.160156-.839843 5.65625-2.34375l40-40c1.503906-1.496093 2.34375-3.539062 2.34375-5.65625v-36c0-11.023437 8.96875-20 20-20s20 8.976563 20 20v76c0 4.414063 3.578125 8 8 8h64c8.824219 0 16 7.175782 16 16 0 8.824219-7.175781 16-16 16h-40v16zm0 0"/><path d="m191.34375 102.460938-8.664062 47.777343c-.535157 2.976563.648437 6 3.074218 7.824219 2.421875 1.824219 5.671875 2.113281 8.367188.769531l45.878906-22.832031 45.878906 22.832031c1.128906.550781 2.347656.832031 3.570313.832031 1.703125 0 3.390625-.546874 4.808593-1.609374 2.421876-1.816407 3.605469-4.839844 3.070313-7.824219l-8.664063-47.777344 36.769532-33.910156c2.277344-2.097657 3.144531-5.320313 2.207031-8.273438-.929687-2.957031-3.480469-5.109375-6.542969-5.527343l-51.183594-7.039063-22.808593-43.738281c-2.753907-5.285156-11.441407-5.285156-14.183594 0l-22.808594 43.738281-51.183593 7.039063c-3.074219.425781-5.617188 2.578124-6.546876 5.527343-.925781 2.953125-.070312 6.175781 2.210938 8.273438zm25.023438-39.46875c2.570312-.351563 4.816406-1.929688 6.007812-4.226563l17.625-33.800781 17.625 33.800781c1.191406 2.296875 3.441406 3.875 6.007812 4.226563l38.480469 5.292968-27.527343 25.402344c-2.015626 1.855469-2.9375 4.613281-2.457032 7.304688l6.601563 36.40625-35.167969-17.496094c-1.128906-.558594-2.347656-.832032-3.5625-.832032s-2.4375.28125-3.558594.832032l-35.167968 17.496094 6.597656-36.40625c.488281-2.691407-.4375-5.449219-2.453125-7.304688l-27.527344-25.402344zm0 0"/><path d="m473.082031 120.628906-45.671875-6.199218-20.328125-38.496094c-2.785156-5.246094-11.378906-5.246094-14.160156 0l-20.328125 38.496094-45.671875 6.199218c-3.082031.417969-5.632813 2.578125-6.5625 5.546875-.917969 2.96875-.046875 6.199219 2.25 8.296875l32.71875 29.804688-7.695313 41.945312c-.542968 2.976563.632813 6 3.039063 7.824219 2.410156 1.824219 5.632813 2.136719 8.359375.800781l40.96875-20.136718 40.96875 20.128906c1.128906.550781 2.328125.824218 3.527344.824218 1.710937 0 3.417968-.554687 4.832031-1.625 2.410156-1.824218 3.585937-4.847656 3.039063-7.824218l-7.695313-41.945313 32.722656-29.808593c2.292969-2.09375 3.167969-5.328126 2.246094-8.292969-.929687-2.960938-3.480469-5.121094-6.558594-5.539063zm-42.472656 34.808594c-2.039063 1.855469-2.976563 4.640625-2.480469 7.359375l5.632813 30.683594-30.234375-14.859375c-1.117188-.542969-2.320313-.824219-3.527344-.824219s-2.414062.273437-3.527344.824219l-30.230468 14.859375 5.628906-30.683594c.496094-2.71875-.4375-5.503906-2.476563-7.359375l-23.335937-21.261719 32.773437-4.449219c2.550781-.34375 4.792969-1.902343 6-4.191406l15.167969-28.738281 15.167969 28.738281c1.207031 2.289063 3.449219 3.839844 6 4.191406l32.777343 4.449219zm0 0"/><path d="m35.328125 164.269531-7.695313 41.945313c-.542968 2.976562.632813 6 3.039063 7.824218 2.410156 1.824219 5.632813 2.136719 8.359375.800782l40.96875-20.128906 40.96875 20.128906c1.128906.550781 2.328125.824218 3.527344.824218 1.710937 0 3.417968-.554687 4.832031-1.625 2.410156-1.824218 3.585937-4.847656 3.039063-7.824218l-7.695313-41.945313 32.722656-29.808593c2.292969-2.09375 3.167969-5.328126 2.246094-8.292969-.929687-2.96875-3.488281-5.128907-6.558594-5.546875l-45.671875-6.199219-20.328125-38.496094c-2.785156-5.246093-11.378906-5.246093-14.160156 0l-20.328125 38.496094-45.671875 6.199219c-3.082031.417968-5.632813 2.578125-6.5625 5.546875-.917969 2.964843-.046875 6.199219 2.25 8.292969zm23.503906-34.542969c2.550781-.34375 4.792969-1.902343 6-4.191406l15.167969-28.738281 15.167969 28.738281c1.207031 2.289063 3.449219 3.839844 6 4.191406l32.777343 4.449219-23.335937 21.261719c-2.039063 1.855469-2.976563 4.640625-2.480469 7.359375l5.632813 30.683594-30.234375-14.859375c-1.117188-.542969-2.320313-.824219-3.527344-.824219s-2.414062.273437-3.527344.824219l-30.230468 14.859375 5.628906-30.683594c.496094-2.71875-.4375-5.503906-2.476563-7.359375l-23.335937-21.261719zm0 0"/><path d="m96 431.664062h16v16h-16zm0 0"/><path d="m96 399.664062h16v16h-16zm0 0"/><path d="m96 367.664062h16v16h-16zm0 0"/></svg>