<svg xmlns="http://www.w3.org/2000/svg" viewBox="0 0 299 283" width="299" height="283">
	<style>
		tspan { white-space:pre }
		.shp0 { fill: #008755 } 
	</style>
	<path id="Layer" fill-rule="evenodd" class="shp0" d="M-500.55 183.84C-485.22 183.84 -475.36 194.09 -475.36 206.63C-475.36 219.17 -485.52 229.68 -500.88 229.68L-517 229.68L-517 183.83L-500.55 183.83M-500.36 220.68C-491.64 220.68 -485.71 214.74 -485.71 206.81C-485.71 198.88 -491.73 193 -500.36 193L-506.59 193L-506.59 220.63L-500.36 220.63L-500.36 220.68Z" />
	<path id="Layer" class="shp0" d="M-438.78 210.65C-438.78 217.02 -442.73 220.76 -448.05 220.76C-453.37 220.76 -457.39 217.01 -457.39 210.65L-457.39 183.83L-467.93 183.83L-467.93 211C-467.93 222.72 -460.24 230.36 -448.37 230.36C-436.5 230.36 -428.56 222.44 -428.56 210.67L-428.56 183.83L-438.78 183.83L-438.78 210.64L-438.78 210.65Z" />
	<path id="Layer" fill-rule="evenodd" class="shp0" d="M-389.11 205.67C-389.11 205.67 -389.1 205.67 -389.1 205.66C-389.1 205.66 -389.11 205.66 -389.11 205.66M-389.1 205.66C-387.94 206.06 -386.86 206.63 -385.88 207.36C-384.9 208.09 -384.04 208.97 -383.33 209.97C-382.62 210.97 -382.08 212.07 -381.71 213.24C-381.35 214.41 -381.17 215.63 -381.18 216.85C-381.18 224.76 -388.27 229.67 -396.52 229.67L-418.28 229.67L-418.28 183.82L-397.69 183.82C-389.81 183.82 -383.19 188.04 -383.19 195.67C-383.18 196.69 -383.32 197.7 -383.58 198.69C-383.85 199.67 -384.25 200.61 -384.76 201.49C-385.28 202.37 -385.92 203.17 -386.65 203.88C-387.38 204.58 -388.21 205.18 -389.1 205.66ZM-399.83 202.32C-395.7 202.32 -393.6 199.91 -393.6 197.19C-393.6 194.47 -395.69 192 -399.83 192L-407.83 192L-407.83 202.29L-399.83 202.29L-399.83 202.32ZM-407.83 221.62L-398.3 221.62C-393.86 221.62 -391.49 218.82 -391.49 215.72C-391.49 212.29 -394.22 209.95 -398.3 209.95L-407.83 209.95L-407.83 221.62Z" />
	<path id="Layer" fill-rule="evenodd" class="shp0" d="M-350 184L-331.5 229.68L-342.95 229.68L-346.58 220.16L-364.37 220.16L-368 229.68L-378.88 229.68L-360.28 183.83L-350.1 183.83L-350 184ZM-355.43 196.14L-361.43 211.83L-349.53 211.83L-355.43 196.14Z" />
	<path id="Layer" class="shp0" d="M-326.01 183.83L-315.34 183.83L-315.34 229.68L-326.01 229.68L-326.01 183.83Z" />
	<path id="Layer" fill-rule="evenodd" class="shp0" d="M-268.23 183.84C-258.36 183.84 -251.01 189.69 -251.01 199.44C-251.01 208.15 -257.62 215.3 -268.56 215.3L-277.7 215.3L-277.7 229.68L-288.11 229.68L-288.11 183.83L-268.24 183.83M-277.7 206.7L-269.21 206.7C-264.24 206.7 -261.36 203.56 -261.36 199.7C-261.36 195.84 -264.21 192.7 -269.21 192.7L-277.7 192.7L-277.7 206.7Z" />
	<path id="Layer" fill-rule="evenodd" class="shp0" d="M-221.43 183.19C-207.59 183.19 -197.53 193.46 -197.53 206.63C-197.53 220.06 -208.15 230.33 -221.75 230.33C-235.59 230.33 -245.65 220.13 -245.65 206.95C-245.65 193.55 -235.05 183.19 -221.43 183.19ZM-207.88 206.76C-207.88 198.82 -213.72 192.82 -221.56 192.82C-229.64 192.82 -235.24 198.98 -235.24 206.76C-235.24 214.76 -229.56 220.76 -221.56 220.76C-213.69 220.76 -207.88 214.7 -207.88 206.76Z" />
	<path id="Layer" class="shp0" d="M-96.87 215.76C-97.5 216.56 -98.22 217.28 -99.02 217.92C-99.81 218.55 -100.68 219.09 -101.6 219.52C-102.52 219.96 -103.49 220.28 -104.49 220.49C-105.49 220.7 -106.5 220.79 -107.52 220.76C-115.45 220.76 -121.2 214.87 -121.2 206.76C-121.2 198.65 -115.45 192.82 -107.52 192.82C-106.54 192.79 -105.56 192.88 -104.59 193.07C-103.63 193.27 -102.69 193.57 -101.8 193.97C-100.9 194.37 -100.05 194.88 -99.27 195.47C-98.49 196.06 -97.77 196.74 -97.14 197.49L-96.97 197.68L-89.37 190.92L-89.54 190.73C-90.67 189.5 -91.92 188.4 -93.28 187.44C-94.64 186.48 -96.11 185.66 -97.64 185.01C-99.17 184.36 -100.77 183.88 -102.41 183.57C-104.05 183.26 -105.71 183.13 -107.38 183.17C-120.96 183.17 -131.6 193.61 -131.6 206.93C-131.6 220.25 -121.33 230.31 -107.7 230.31C-105.97 230.35 -104.24 230.2 -102.54 229.86C-100.84 229.52 -99.18 229 -97.6 228.3C-96.01 227.6 -94.51 226.73 -93.11 225.7C-91.72 224.67 -90.44 223.5 -89.3 222.19L-89.13 222L-96.7 215.54L-96.87 215.76Z" />
	<path id="Layer" class="shp0" d="M-178.77 183.83L-189.18 183.83L-189.18 229.68L-156.62 229.68L-156.62 220.37L-178.77 220.37L-178.77 183.83L-178.77 183.83Z" />
	<path id="Layer" class="shp0" d="M-150.6 183.83L-139.93 183.83L-139.93 229.68L-150.6 229.68L-150.6 183.83Z" />
	<path id="Layer" class="shp0" d="M-72.35 220.63L-72.35 210.38L-52.14 210.38L-52.14 201.84L-72.35 201.84L-72.35 192.95L-48.9 192.95L-48.9 183.83L-82.76 183.83L-82.76 229.68L-48.25 229.68L-48.25 220.63L-72.35 220.63L-72.35 220.63Z" />
	<path id="Layer" class="shp0" d="M-264.76 72.51C-262 72.51 -259.51 70.85 -258.46 68.3C-257.4 65.75 -257.99 62.82 -259.94 60.87C-261.89 58.92 -264.82 58.33 -267.37 59.39C-269.92 60.44 -271.58 62.93 -271.58 65.69C-271.58 66.59 -271.4 67.47 -271.06 68.3C-270.71 69.13 -270.21 69.88 -269.58 70.51C-268.95 71.14 -268.2 71.64 -267.37 71.99C-266.54 72.33 -265.66 72.51 -264.76 72.51" />
	<path id="Layer" class="shp0" d="M-85.38 62.25C-82.62 62.25 -80.13 60.59 -79.08 58.04C-78.02 55.49 -78.61 52.56 -80.56 50.61C-82.51 48.66 -85.44 48.07 -87.99 49.13C-90.54 50.18 -92.2 52.67 -92.2 55.43C-92.2 56.33 -92.02 57.21 -91.68 58.04C-91.33 58.87 -90.83 59.62 -90.2 60.25C-89.57 60.88 -88.82 61.38 -87.99 61.73C-87.16 62.07 -86.28 62.25 -85.38 62.25" />
	<path id="Layer" class="shp0" d="M-94.85 78C-92.09 78 -89.6 76.34 -88.55 73.79C-87.49 71.24 -88.08 68.31 -90.03 66.36C-91.98 64.41 -94.91 63.82 -97.46 64.88C-100.01 65.93 -101.67 68.42 -101.67 71.18C-101.67 72.08 -101.49 72.96 -101.15 73.79C-100.8 74.62 -100.3 75.37 -99.67 76C-99.04 76.63 -98.29 77.13 -97.46 77.48C-96.63 77.82 -95.75 78 -94.85 78" />
	<path id="Layer" class="shp0" d="M-82.72 71.15C-82.72 73.91 -81.06 76.4 -78.51 77.45C-75.96 78.51 -73.03 77.92 -71.08 75.97C-69.13 74.02 -68.54 71.09 -69.6 68.54C-70.65 65.99 -73.14 64.33 -75.9 64.33C-76.8 64.33 -77.68 64.51 -78.51 64.85C-79.34 65.2 -80.09 65.7 -80.72 66.33C-81.35 66.96 -81.85 67.71 -82.2 68.54C-82.54 69.37 -82.72 70.25 -82.72 71.15" />
	<path id="Layer" class="shp0" d="M-58.09 79.58L-69.56 86.58C-66.87 91.01 -58.91 106.42 -62.61 128.25L-78.67 128.25L-78.67 86.55L-92.08 86.55L-92.08 128.21L-102.27 128.21L-102.27 86.55L-115.68 86.55L-115.68 128.21L-134.68 128.21L-134.68 81.09L-148.08 81.09L-148.08 134C-148.08 136.58 -148.59 139.13 -149.58 141.52C-150.57 143.9 -152.02 146.06 -153.84 147.89C-155.67 149.71 -157.83 151.16 -160.21 152.15C-162.6 153.14 -165.15 153.65 -167.73 153.65L-171.15 153.65L-171.15 167.07L-167.73 167.07C-164.04 167.06 -160.37 166.44 -156.88 165.23C-153.39 164.01 -150.13 162.22 -147.23 159.93C-144.34 157.64 -141.84 154.88 -139.86 151.76C-137.87 148.65 -136.42 145.22 -135.56 141.63L-51.89 141.63L-50.64 136.52C-43.41 106.98 -54.52 85.47 -58.09 79.58" />
	<path id="Layer" class="shp0" d="M-348.74 79.51L-354.74 91.51C-337.31 100.27 -336.28 117.51 -337.59 128.23L-367.49 128.23L-367.49 141.65L-326.54 141.65L-325.38 136.38C-317.08 98.68 -341.14 83.33 -348.71 79.52" />
	<path id="Layer" fill-rule="evenodd" class="shp0" d="M-163.86 141.64L-271.55 141.64L-271.55 94.51L-272 94.51C-274.64 94.51 -277.26 95.04 -279.7 96.05C-282.14 97.06 -284.36 98.55 -286.23 100.41C-288.09 102.28 -289.58 104.5 -290.59 106.94C-291.6 109.38 -292.13 112 -292.13 114.64L-292.13 141.64L-305.55 141.64L-305.55 114.64C-305.54 110.24 -304.67 105.88 -302.99 101.81C-301.3 97.74 -298.83 94.04 -295.71 90.93C-292.6 87.81 -288.9 85.34 -284.83 83.65C-280.76 81.97 -276.4 81.1 -272 81.09L-258.11 81.09L-258.11 128.22L-243 128.22L-243 65.69L-229.61 65.69L-229.61 102.2L-217.78 92.11C-214.05 88.94 -209.71 86.56 -205.03 85.13C-200.35 83.71 -195.43 83.25 -190.56 83.81C-185.7 84.36 -181 85.9 -176.76 88.34C-172.52 90.79 -168.82 94.07 -165.9 98C-164.25 100.23 -162.87 102.65 -161.77 105.2C-160.68 107.76 -159.88 110.43 -159.4 113.16C-158.91 115.89 -158.75 118.68 -158.9 121.45C-159.05 124.22 -159.53 126.97 -160.31 129.63L-163.86 141.63L-163.86 141.64ZM-229.61 119.87L-229.61 128.22L-173.87 128.22L-173.17 125.86C-172.68 124.19 -172.38 122.47 -172.28 120.73C-172.19 118.99 -172.29 117.24 -172.6 115.53C-172.9 113.81 -173.4 112.14 -174.09 110.54C-174.78 108.94 -175.64 107.42 -176.68 106.02C-178.5 103.57 -180.81 101.51 -183.46 99.99C-186.11 98.46 -189.04 97.5 -192.08 97.15C-195.12 96.81 -198.2 97.09 -201.12 97.98C-204.04 98.87 -206.75 100.36 -209.08 102.34L-229.62 119.86L-229.61 119.87Z" />
	<path id="Layer" class="shp0" d="M-389.67 150.22C-392.43 150.22 -394.92 151.88 -395.98 154.44C-397.04 156.99 -396.45 159.93 -394.5 161.88C-392.55 163.83 -389.61 164.42 -387.06 163.36C-384.5 162.3 -382.84 159.81 -382.84 157.05C-382.84 156.15 -383.02 155.27 -383.36 154.44C-383.71 153.61 -384.21 152.86 -384.84 152.22C-385.48 151.59 -386.23 151.09 -387.06 150.74C-387.89 150.4 -388.77 150.22 -389.67 150.22" />
	<path id="Layer" class="shp0" d="M-461.29 150.22C-464.05 150.22 -466.54 151.88 -467.6 154.44C-468.66 156.99 -468.07 159.93 -466.12 161.88C-464.17 163.83 -461.23 164.42 -458.68 163.36C-456.12 162.3 -454.46 159.81 -454.46 157.05C-454.46 156.15 -454.64 155.27 -454.98 154.44C-455.33 153.61 -455.83 152.86 -456.46 152.22C-457.1 151.59 -457.85 151.09 -458.68 150.74C-459.51 150.4 -460.39 150.22 -461.29 150.22" />
	<path id="Layer" class="shp0" d="M-478.46 150.22C-481.22 150.22 -483.71 151.88 -484.77 154.44C-485.83 156.99 -485.24 159.93 -483.29 161.88C-481.34 163.83 -478.4 164.42 -475.85 163.36C-473.29 162.3 -471.63 159.81 -471.63 157.05C-471.63 156.15 -471.81 155.27 -472.15 154.44C-472.5 153.61 -473 152.86 -473.63 152.22C-474.27 151.59 -475.02 151.09 -475.85 150.74C-476.68 150.4 -477.56 150.22 -478.46 150.22" />
	<path id="Layer" class="shp0" d="M-281.49 72.52C-278.73 72.52 -276.24 70.86 -275.18 68.3C-274.12 65.75 -274.71 62.81 -276.66 60.86C-278.61 58.91 -281.55 58.32 -284.1 59.38C-286.66 60.44 -288.32 62.93 -288.32 65.69C-288.32 66.59 -288.14 67.47 -287.8 68.3C-287.45 69.13 -286.95 69.88 -286.32 70.52C-285.68 71.15 -284.93 71.65 -284.1 72C-283.27 72.34 -282.39 72.52 -281.49 72.52" />
	<path id="Layer" class="shp0" d="M-389 120C-389 121.08 -389.21 122.14 -389.63 123.14C-390.04 124.13 -390.64 125.03 -391.4 125.8C-392.17 126.56 -393.07 127.16 -394.06 127.57C-395.06 127.99 -396.12 128.2 -397.2 128.2L-403.36 128.2L-403.36 81.09L-417.45 81.09C-435.59 81.09 -449.8 95.83 -449.8 114.64L-449.8 128.21L-503.58 128.21L-503.58 126.4C-503.58 122.88 -503.36 119.37 -502.94 115.88C-502.51 112.39 -501.88 108.93 -501.03 105.52C-500.19 102.11 -499.15 98.75 -497.9 95.46C-496.65 92.17 -495.21 88.96 -493.58 85.85L-505.41 79.53C-507.3 83.13 -508.97 86.84 -510.41 90.64C-511.85 94.44 -513.07 98.32 -514.04 102.26C-515.02 106.21 -515.75 110.21 -516.25 114.24C-516.74 118.28 -516.99 122.34 -517 126.4L-517 141.63L-436.38 141.63L-436.38 114.63C-436.38 103.15 -428.24 94.49 -417.45 94.49L-416.73 94.49L-416.73 141.62L-397.15 141.62C-394.31 141.62 -391.5 141.05 -388.88 139.97C-386.26 138.88 -383.88 137.29 -381.87 135.28C-379.87 133.27 -378.28 130.89 -377.19 128.27C-376.1 125.65 -375.54 122.84 -375.54 120L-375.54 81.09L-389 81.09L-389 120Z" />
	<path id="Layer" fill-rule="evenodd" class="shp0" d="M296.23 157.91C296.2 157.91 296.17 157.91 296.14 157.91C296.14 157.9 296.14 157.9 296.14 157.9M296.14 157.91C296.31 160.18 296.24 162.47 295.93 164.73C295.62 166.99 295.06 169.21 294.28 171.36C293.49 173.5 292.48 175.56 291.26 177.49C290.04 179.42 288.61 181.21 287.01 182.84C286.57 183.3 286.13 183.74 285.67 184.17C285.21 184.61 284.75 185.03 284.27 185.44C283.79 185.85 283.3 186.25 282.81 186.64C282.31 187.03 281.8 187.41 281.29 187.77C281.87 187.79 282.46 187.82 283.04 187.87C283.62 187.92 284.2 187.99 284.78 188.07C285.36 188.15 285.93 188.25 286.5 188.37C287.08 188.49 287.65 188.62 288.21 188.77C287.9 191.03 287.35 193.26 286.57 195.4C285.79 197.55 284.78 199.6 283.56 201.54C282.34 203.47 280.92 205.26 279.32 206.89C277.72 208.52 275.95 209.98 274.04 211.23C273.52 211.58 272.99 211.92 272.45 212.25C271.91 212.58 271.36 212.89 270.81 213.19C270.25 213.5 269.69 213.78 269.12 214.06C268.55 214.33 267.98 214.59 267.4 214.84C267.97 214.98 268.53 215.14 269.09 215.32C269.64 215.49 270.19 215.68 270.74 215.89C271.29 216.09 271.83 216.32 272.36 216.55C272.89 216.79 273.42 217.04 273.94 217.31C273.16 219.46 272.16 221.52 270.94 223.46C269.72 225.39 268.3 227.19 266.71 228.83C265.11 230.46 263.34 231.92 261.43 233.18C259.52 234.43 257.48 235.49 255.35 236.31C254.76 236.54 254.17 236.76 253.58 236.97C252.98 237.18 252.38 237.37 251.78 237.55C251.17 237.73 250.56 237.89 249.95 238.04C249.34 238.19 248.72 238.32 248.1 238.44C248.62 238.7 249.14 238.97 249.65 239.26C250.16 239.55 250.66 239.85 251.15 240.17C251.64 240.49 252.12 240.82 252.59 241.16C253.07 241.51 253.53 241.87 253.98 242.24C252.77 244.17 251.35 245.97 249.75 247.6C248.16 249.24 246.39 250.69 244.48 251.95C242.58 253.21 240.54 254.26 238.41 255.08C236.29 255.91 234.08 256.5 231.82 256.86C231.2 256.97 230.58 257.06 229.95 257.14C229.32 257.21 228.7 257.27 228.07 257.32C227.44 257.37 226.81 257.4 226.18 257.42C225.55 257.43 224.92 257.43 224.29 257.42C224.75 257.78 225.2 258.16 225.63 258.55C226.07 258.94 226.49 259.34 226.91 259.75C227.32 260.17 227.72 260.59 228.11 261.03C228.5 261.46 228.88 261.91 229.24 262.37C227.65 264.01 225.88 265.47 223.98 266.73C222.07 267.99 220.04 269.04 217.91 269.87C215.78 270.7 213.57 271.29 211.31 271.65C209.06 272.01 206.77 272.13 204.49 272C203.86 271.98 203.23 271.94 202.6 271.88C201.98 271.83 201.35 271.76 200.73 271.68C200.1 271.6 199.48 271.5 198.86 271.38C198.24 271.27 197.62 271.14 197.01 271C197.38 271.45 197.74 271.91 198.08 272.39C198.43 272.86 198.76 273.34 199.07 273.83C199.39 274.32 199.69 274.82 199.98 275.33C200.27 275.84 200.54 276.36 200.8 276.88C198.9 278.14 196.86 279.2 194.74 280.03C192.61 280.86 190.4 281.46 188.15 281.82C185.89 282.18 183.6 282.3 181.32 282.18C179.04 282.05 176.78 281.68 174.58 281.08C173.6 280.84 172.64 280.55 171.68 280.23C170.73 279.9 169.79 279.53 168.87 279.12C167.95 278.72 167.05 278.27 166.16 277.79C165.28 277.3 164.42 276.78 163.58 276.22C161.32 274.68 158.85 273.49 156.23 272.68C153.62 271.88 150.9 271.47 148.17 271.47C145.44 271.47 142.72 271.88 140.11 272.68C137.49 273.49 135.02 274.68 132.76 276.22C131.92 276.78 131.06 277.3 130.18 277.79C129.29 278.27 128.39 278.72 127.47 279.12C126.55 279.53 125.61 279.9 124.66 280.23C123.7 280.55 122.74 280.84 121.76 281.08C119.56 281.69 117.3 282.05 115.02 282.18C112.74 282.3 110.45 282.18 108.19 281.82C105.94 281.46 103.73 280.86 101.6 280.03C99.48 279.2 97.44 278.14 95.54 276.88C95.8 276.36 96.07 275.84 96.36 275.33C96.65 274.82 96.95 274.32 97.27 273.83C97.58 273.34 97.91 272.86 98.26 272.39C98.6 271.91 98.96 271.45 99.33 271C98.72 271.14 98.1 271.27 97.48 271.38C96.86 271.5 96.24 271.6 95.61 271.68C94.99 271.76 94.36 271.83 93.74 271.88C93.11 271.94 92.48 271.98 91.85 272C89.56 272.13 87.27 272.01 85.01 271.66C82.75 271.3 80.53 270.7 78.4 269.87C76.26 269.04 74.22 267.98 72.31 266.71C70.4 265.45 68.64 263.98 67.04 262.34C67.4 261.88 67.78 261.43 68.17 261C68.56 260.56 68.96 260.14 69.37 259.72C69.79 259.31 70.21 258.91 70.65 258.52C71.08 258.13 71.53 257.75 71.99 257.39C71.36 257.4 70.73 257.4 70.1 257.39C69.47 257.37 68.84 257.34 68.21 257.29C67.58 257.24 66.96 257.18 66.33 257.11C65.7 257.03 65.08 256.94 64.46 256.83C62.2 256.47 59.99 255.88 57.86 255.05C55.73 254.23 53.7 253.18 51.79 251.92C49.88 250.67 48.12 249.21 46.52 247.58C44.92 245.94 43.5 244.14 42.29 242.21C42.74 241.84 43.2 241.48 43.68 241.13C44.15 240.79 44.63 240.46 45.12 240.14C45.61 239.82 46.11 239.52 46.62 239.23C47.13 238.94 47.65 238.67 48.17 238.41C47.55 238.29 46.93 238.16 46.32 238.01C45.71 237.86 45.1 237.7 44.49 237.52C43.89 237.34 43.29 237.15 42.69 236.94C42.1 236.73 41.51 236.51 40.92 236.28C38.79 235.46 36.75 234.4 34.84 233.15C32.93 231.89 31.16 230.43 29.56 228.8C27.97 227.16 26.55 225.36 25.33 223.43C24.11 221.49 23.11 219.43 22.33 217.28C22.85 217.01 23.38 216.76 23.91 216.52C24.44 216.29 24.98 216.06 25.53 215.86C26.08 215.65 26.63 215.46 27.18 215.29C27.74 215.11 28.3 214.95 28.87 214.81C28.29 214.56 27.72 214.3 27.15 214.03C26.58 213.75 26.02 213.47 25.46 213.16C24.91 212.86 24.36 212.55 23.82 212.22C23.28 211.89 22.75 211.55 22.23 211.2C20.32 209.95 18.55 208.49 16.95 206.86C15.35 205.23 13.93 203.44 12.71 201.51C11.49 199.57 10.48 197.52 9.7 195.37C8.92 193.23 8.37 191 8.06 188.74C8.62 188.59 9.19 188.46 9.77 188.34C10.34 188.22 10.91 188.12 11.49 188.04C12.07 187.96 12.65 187.89 13.23 187.84C13.81 187.79 14.4 187.76 14.98 187.74C14.46 187.38 13.96 187 13.46 186.61C12.96 186.22 12.48 185.82 12 185.41C11.52 185 11.05 184.58 10.59 184.14C10.13 183.71 9.69 183.27 9.25 182.81C7.65 181.18 6.22 179.39 5 177.46C3.78 175.53 2.77 173.47 1.98 171.33C1.2 169.18 0.64 166.96 0.33 164.7C0.02 162.44 -0.05 160.15 0.12 157.87C0.71 157.84 1.29 157.83 1.88 157.83C2.46 157.83 3.05 157.85 3.63 157.89C4.22 157.92 4.8 157.98 5.38 158.05C5.96 158.12 6.54 158.21 7.12 158.31C6.69 157.85 6.28 157.38 5.87 156.89C5.47 156.41 5.08 155.92 4.7 155.42C4.32 154.92 3.95 154.41 3.59 153.89C3.24 153.37 2.89 152.84 2.56 152.31C1.34 150.38 0.32 148.33 -0.47 146.18C-1.25 144.04 -1.81 141.82 -2.13 139.56C-2.44 137.3 -2.51 135.01 -2.34 132.73C-2.17 130.45 -1.76 128.2 -1.11 126.01C-0.53 126.1 0.04 126.21 0.61 126.34C1.18 126.47 1.75 126.61 2.31 126.77C2.87 126.93 3.43 127.1 3.98 127.29C4.53 127.48 5.08 127.69 5.62 127.91C5.3 127.37 4.99 126.81 4.7 126.26C4.41 125.7 4.13 125.13 3.86 124.56C3.6 123.99 3.34 123.41 3.1 122.83C2.87 122.24 2.64 121.65 2.43 121.06C1.64 118.92 1.09 116.69 0.77 114.43C0.46 112.17 0.39 109.88 0.56 107.6C0.73 105.32 1.15 103.07 1.8 100.88C2.45 98.69 3.33 96.57 4.43 94.57C4.97 94.78 5.51 95.01 6.04 95.26C6.57 95.5 7.1 95.76 7.61 96.03C8.13 96.31 8.64 96.59 9.14 96.9C9.64 97.2 10.13 97.52 10.61 97.85C10.41 97.25 10.23 96.65 10.06 96.04C9.89 95.43 9.74 94.82 9.6 94.2C9.46 93.59 9.33 92.97 9.22 92.35C9.12 91.73 9.02 91.11 8.94 90.48C8.62 88.22 8.54 85.93 8.71 83.65C8.87 81.37 9.28 79.12 9.92 76.93C10.57 74.74 11.44 72.62 12.54 70.62C13.63 68.61 14.94 66.73 16.43 65C16.92 65.33 17.4 65.67 17.87 66.02C18.34 66.37 18.79 66.74 19.24 67.12C19.69 67.5 20.13 67.89 20.55 68.3C20.98 68.7 21.39 69.12 21.79 69.55C21.72 68.92 21.67 68.3 21.63 67.67C21.59 67.04 21.57 66.41 21.56 65.78C21.56 65.15 21.56 64.52 21.59 63.89C21.61 63.26 21.65 62.63 21.7 62C21.86 59.71 22.27 57.45 22.91 55.25C23.55 53.06 24.43 50.93 25.53 48.92C26.62 46.91 27.93 45.02 29.43 43.29C30.93 41.55 32.61 39.99 34.44 38.61C34.85 39.03 35.24 39.46 35.63 39.9C36.01 40.34 36.38 40.79 36.74 41.25C37.1 41.71 37.44 42.19 37.77 42.67C38.1 43.15 38.42 43.64 38.72 44.14C38.79 43.51 38.87 42.89 38.96 42.27C39.06 41.64 39.17 41.02 39.3 40.4C39.42 39.79 39.57 39.17 39.72 38.56C39.88 37.95 40.05 37.34 40.23 36.74C40.87 34.55 41.74 32.43 42.83 30.42C43.92 28.41 45.22 26.53 46.71 24.8C48.2 23.07 49.87 21.5 51.69 20.12C53.51 18.75 55.48 17.57 57.55 16.61C57.86 17.1 58.15 17.61 58.43 18.12C58.72 18.63 58.98 19.15 59.23 19.68C59.48 20.21 59.72 20.74 59.94 21.28C60.16 21.82 60.36 22.37 60.55 22.92C60.74 22.32 60.95 21.73 61.18 21.14C61.4 20.55 61.63 19.97 61.89 19.39C62.14 18.81 62.4 18.24 62.68 17.67C62.95 17.11 63.25 16.55 63.55 16C64.64 13.99 65.94 12.11 67.43 10.38C68.91 8.65 70.58 7.08 72.4 5.71C74.22 4.33 76.19 3.15 78.26 2.2C80.33 1.24 82.49 0.5 84.72 0C85.13 1.13 85.47 2.27 85.75 3.44C86.02 4.6 86.23 5.78 86.37 6.97C86.51 8.16 86.58 9.36 86.58 10.56C86.58 11.75 86.52 12.95 86.38 14.14C87.42 13.37 88.54 12.61 89.77 11.87C91.72 10.67 93.78 9.69 95.94 8.93C98.09 8.18 100.32 7.65 102.59 7.37C104.85 7.09 107.14 7.05 109.42 7.25C111.69 7.45 113.94 7.9 116.12 8.58C115.7 10.82 115.04 13.01 114.16 15.11C113.28 17.22 112.17 19.22 110.86 21.09C109.56 22.95 108.05 24.68 106.38 26.23C104.71 27.77 102.87 29.14 100.91 30.3C99.68 31.04 98.49 31.68 97.32 32.24C98.44 32.67 99.53 33.17 100.58 33.73C101.64 34.29 102.67 34.91 103.66 35.59C104.64 36.27 105.59 37 106.49 37.79C107.4 38.58 108.25 39.41 109.06 40.3C107.83 41.74 106.48 43.07 105.02 44.28C103.56 45.48 101.99 46.55 100.34 47.47C98.69 48.4 96.95 49.17 95.16 49.78C93.37 50.4 91.53 50.85 89.66 51.14C88.76 52.78 87.72 54.34 86.55 55.8C85.38 57.26 84.08 58.61 82.67 59.84C81.26 61.07 79.75 62.17 78.15 63.14C76.54 64.1 74.86 64.92 73.11 65.59C72.58 67.38 71.89 69.13 71.05 70.8C70.21 72.47 69.23 74.07 68.11 75.57C66.99 77.07 65.74 78.46 64.38 79.74C63.01 81.02 61.54 82.18 59.97 83.2C59.83 85.07 59.52 86.92 59.06 88.73C58.59 90.54 57.97 92.31 57.19 94.01C56.41 95.72 55.49 97.35 54.42 98.89C53.36 100.43 52.16 101.87 50.84 103.2C51.09 105.05 51.18 106.93 51.11 108.8C51.04 110.66 50.8 112.52 50.39 114.35C49.99 116.18 49.43 117.97 48.71 119.69C48 121.42 47.13 123.08 46.12 124.66C46.76 126.42 47.25 128.23 47.57 130.08C47.89 131.92 48.05 133.79 48.04 135.67C48.03 137.54 47.86 139.41 47.52 141.25C47.18 143.1 46.69 144.91 46.03 146.66C47.03 148.24 47.88 149.91 48.58 151.65C49.28 153.38 49.83 155.17 50.22 157.01C50.6 158.84 50.83 160.7 50.89 162.57C50.95 164.44 50.84 166.31 50.57 168.16C51.88 169.5 53.07 170.95 54.12 172.49C55.18 174.04 56.09 175.68 56.86 177.39C57.63 179.09 58.24 180.87 58.7 182.68C59.15 184.5 59.44 186.35 59.57 188.22C61.13 189.25 62.6 190.42 63.95 191.71C65.31 193 66.54 194.41 67.65 195.92C68.76 197.43 69.73 199.03 70.55 200.71C71.38 202.39 72.05 204.14 72.57 205.94C74.31 206.62 75.99 207.46 77.59 208.43C79.18 209.41 80.69 210.53 82.09 211.77C83.48 213.01 84.77 214.38 85.93 215.84C87.09 217.31 88.12 218.88 89 220.53C90.84 220.84 92.66 221.31 94.42 221.93C96.18 222.56 97.88 223.34 99.5 224.26C101.13 225.19 102.66 226.25 104.1 227.45C105.54 228.64 106.87 229.96 108.07 231.39C110.33 231.28 112.59 231.41 114.82 231.77C117.06 232.13 119.24 232.73 121.35 233.56C123.45 234.38 125.47 235.43 127.35 236.67C129.24 237.92 130.99 239.36 132.57 240.98C137 245.43 139.58 249.74 140.86 253.8C141.33 255.38 142.29 256.76 143.61 257.74C144.93 258.73 146.53 259.26 148.18 259.26C149.82 259.26 151.42 258.73 152.74 257.74C154.06 256.76 155.02 255.38 155.49 253.8C156.77 249.74 159.35 245.43 163.77 240.98C165.35 239.36 167.1 237.92 168.99 236.67C170.87 235.43 172.89 234.38 174.99 233.56C177.1 232.73 179.28 232.13 181.52 231.77C183.75 231.41 186.01 231.28 188.27 231.39C189.48 229.96 190.81 228.65 192.26 227.46C193.7 226.27 195.24 225.2 196.87 224.28C198.5 223.36 200.21 222.59 201.97 221.97C203.74 221.35 205.55 220.89 207.4 220.59C208.28 218.94 209.31 217.37 210.47 215.9C211.63 214.44 212.92 213.07 214.31 211.83C215.71 210.59 217.22 209.47 218.81 208.49C220.41 207.52 222.09 206.68 223.83 206C224.35 204.2 225.02 202.45 225.85 200.77C226.67 199.09 227.64 197.49 228.75 195.98C229.86 194.47 231.09 193.06 232.45 191.77C233.8 190.48 235.27 189.31 236.83 188.28C236.96 186.41 237.25 184.56 237.71 182.74C238.16 180.93 238.77 179.15 239.54 177.45C240.31 175.74 241.22 174.1 242.28 172.56C243.33 171.01 244.52 169.56 245.83 168.22C245.56 166.37 245.45 164.5 245.51 162.63C245.57 160.76 245.8 158.9 246.18 157.07C246.57 155.23 247.12 153.44 247.82 151.71C248.52 149.97 249.37 148.3 250.37 146.72C249.71 144.97 249.21 143.16 248.88 141.31C248.54 139.47 248.37 137.6 248.36 135.73C248.35 133.85 248.51 131.98 248.83 130.14C249.15 128.29 249.64 126.48 250.28 124.72C249.27 123.14 248.4 121.48 247.69 119.75C246.97 118.03 246.41 116.24 246.01 114.41C245.6 112.58 245.36 110.72 245.29 108.86C245.22 106.99 245.31 105.11 245.56 103.26C244.24 101.93 243.04 100.49 241.98 98.95C240.91 97.41 239.99 95.78 239.21 94.07C238.43 92.37 237.81 90.6 237.34 88.79C236.88 86.98 236.57 85.13 236.43 83.26C234.86 82.24 233.39 81.08 232.02 79.8C230.66 78.52 229.41 77.13 228.29 75.63C227.17 74.13 226.19 72.53 225.35 70.86C224.51 69.19 223.82 67.44 223.29 65.65C221.54 64.98 219.86 64.16 218.25 63.2C216.65 62.23 215.14 61.13 213.73 59.9C212.32 58.67 211.02 57.32 209.85 55.86C208.68 54.4 207.64 52.84 206.74 51.2C204.87 50.91 203.03 50.46 201.24 49.84C199.45 49.23 197.71 48.45 196.06 47.53C194.41 46.61 192.84 45.54 191.38 44.34C189.92 43.13 188.57 41.8 187.34 40.36C188.15 39.47 189 38.64 189.91 37.85C190.81 37.06 191.76 36.33 192.74 35.65C193.73 34.97 194.76 34.35 195.82 33.79C196.87 33.23 197.96 32.73 199.08 32.3C197.91 31.74 196.72 31.1 195.49 30.36C193.53 29.2 191.69 27.82 190.02 26.27C188.34 24.72 186.84 22.99 185.54 21.12C184.23 19.24 183.13 17.24 182.25 15.13C181.37 13.02 180.71 10.83 180.3 8.58C182.48 7.9 184.72 7.46 186.99 7.26C189.26 7.05 191.55 7.1 193.81 7.38C196.07 7.66 198.3 8.18 200.45 8.94C202.6 9.69 204.67 10.68 206.61 11.87C207.83 12.61 209 13.37 210 14.14C209.87 12.95 209.8 11.75 209.81 10.55C209.81 9.36 209.89 8.16 210.03 6.97C210.17 5.78 210.39 4.6 210.66 3.44C210.94 2.27 211.29 1.13 211.7 0C213.93 0.5 216.1 1.24 218.17 2.2C220.25 3.16 222.21 4.34 224.03 5.72C225.86 7.1 227.53 8.67 229.01 10.41C230.5 12.14 231.8 14.03 232.89 16.04C233.19 16.59 233.49 17.15 233.76 17.71C234.04 18.28 234.3 18.85 234.56 19.43C234.81 20.01 235.04 20.59 235.26 21.18C235.49 21.77 235.7 22.36 235.89 22.96C236.08 22.41 236.28 21.86 236.5 21.32C236.72 20.78 236.96 20.25 237.21 19.72C237.46 19.19 237.72 18.67 238.01 18.16C238.29 17.65 238.58 17.14 238.89 16.65C240.96 17.61 242.93 18.79 244.75 20.16C246.57 21.54 248.24 23.11 249.73 24.84C251.22 26.57 252.52 28.45 253.61 30.46C254.7 32.47 255.57 34.59 256.21 36.78C256.39 37.38 256.56 37.99 256.72 38.6C256.87 39.21 257.02 39.83 257.14 40.44C257.27 41.06 257.38 41.68 257.48 42.31C257.57 42.93 257.65 43.55 257.72 44.18C258.02 43.68 258.34 43.19 258.67 42.71C259 42.23 259.34 41.75 259.7 41.29C260.06 40.83 260.43 40.38 260.81 39.94C261.2 39.5 261.59 39.07 262 38.65C263.83 40.02 265.5 41.58 267 43.31C268.49 45.04 269.8 46.92 270.89 48.93C271.99 50.93 272.86 53.05 273.51 55.24C274.15 57.43 274.56 59.68 274.73 61.96C274.78 62.59 274.82 63.22 274.85 63.85C274.87 64.48 274.88 65.11 274.87 65.74C274.86 66.37 274.84 67 274.81 67.63C274.77 68.26 274.72 68.88 274.65 69.51C275.05 69.08 275.46 68.67 275.89 68.27C276.31 67.87 276.75 67.48 277.2 67.1C277.64 66.72 278.1 66.36 278.57 66.01C279.04 65.66 279.51 65.32 280 65C281.49 66.73 282.79 68.62 283.88 70.63C284.97 72.64 285.84 74.76 286.47 76.96C287.11 79.15 287.51 81.41 287.67 83.69C287.83 85.97 287.74 88.26 287.41 90.52C287.33 91.15 287.23 91.77 287.13 92.39C287.02 93.01 286.89 93.63 286.75 94.24C286.61 94.86 286.46 95.47 286.29 96.08C286.12 96.69 285.94 97.29 285.74 97.89C286.22 97.56 286.71 97.24 287.21 96.94C287.71 96.63 288.22 96.35 288.74 96.07C289.25 95.8 289.78 95.54 290.31 95.3C290.84 95.05 291.38 94.82 291.92 94.61C293.02 96.61 293.9 98.73 294.55 100.92C295.2 103.11 295.62 105.36 295.79 107.64C295.96 109.92 295.89 112.21 295.58 114.47C295.26 116.73 294.71 118.96 293.92 121.1C293.71 121.69 293.48 122.28 293.25 122.87C293.01 123.45 292.75 124.03 292.49 124.6C292.22 125.17 291.94 125.74 291.65 126.3C291.36 126.85 291.05 127.41 290.73 127.95C291.27 127.73 291.82 127.52 292.37 127.33C292.92 127.14 293.48 126.97 294.04 126.81C294.6 126.65 295.17 126.51 295.74 126.38C296.31 126.25 296.88 126.14 297.46 126.05C298.11 128.24 298.52 130.49 298.69 132.77C298.86 135.05 298.79 137.34 298.48 139.6C298.16 141.86 297.6 144.08 296.82 146.22C296.03 148.37 295.01 150.42 293.79 152.35C293.46 152.88 293.12 153.41 292.76 153.93C292.4 154.45 292.03 154.96 291.65 155.46C291.27 155.96 290.88 156.45 290.48 156.93C290.07 157.42 289.66 157.89 289.23 158.35C289.81 158.25 290.39 158.16 290.97 158.09C291.55 158.02 292.13 157.96 292.72 157.93C293.3 157.89 293.89 157.87 294.47 157.87C295.03 157.87 295.59 157.88 296.14 157.91ZM93.08 231.56C93.22 233 93.48 234.43 93.85 235.83C94.22 237.23 94.7 238.59 95.29 239.91C95.88 241.24 96.57 242.51 97.36 243.72C101.36 249.94 105.77 253.4 110.61 254.55C111.58 249.68 110.28 244.22 106.28 238C105.5 236.78 104.62 235.62 103.66 234.54C102.69 233.46 101.64 232.45 100.51 231.54C99.38 230.63 98.19 229.81 96.93 229.08C95.67 228.36 94.36 227.74 93 227.23C92.91 228.67 92.94 230.12 93.08 231.56ZM74.22 217.61C74.05 219.05 73.99 220.5 74.06 221.95C74.12 223.4 74.3 224.84 74.59 226.26C74.89 227.68 75.29 229.07 75.81 230.43C78.41 237.35 81.99 241.67 86.48 243.81C88.46 239.24 88.32 233.63 85.73 226.71C85.23 225.35 84.62 224.03 83.91 222.77C83.2 221.5 82.39 220.3 81.48 219.17C80.58 218.03 79.58 216.98 78.51 216C77.44 215.03 76.29 214.14 75.07 213.35C74.67 214.74 74.39 216.17 74.22 217.61ZM60.5 196C59.82 197.28 59.24 198.61 58.77 199.98C58.3 201.36 57.95 202.76 57.7 204.19C57.46 205.62 57.33 207.07 57.32 208.52C57.31 209.97 57.41 211.42 57.63 212.85C58.71 220.18 61.3 225.18 65.24 228.18C68.11 224.13 69.19 218.62 68.11 211.31C67.91 209.87 67.59 208.46 67.16 207.07C66.73 205.69 66.19 204.34 65.54 203.04C64.9 201.74 64.15 200.5 63.31 199.32C62.46 198.14 61.52 197.03 60.5 196ZM49.88 176C48.94 177.11 48.1 178.29 47.35 179.53C46.6 180.78 45.95 182.08 45.41 183.43C44.87 184.77 44.44 186.16 44.13 187.58C43.81 188.99 43.61 190.43 43.52 191.88C43.03 199.25 44.52 204.66 47.73 208.46C51.41 205.11 53.6 199.95 54.09 192.57C54.19 191.12 54.18 189.67 54.05 188.23C53.93 186.78 53.68 185.35 53.33 183.94C52.97 182.54 52.5 181.16 51.92 179.83C51.35 178.5 50.66 177.22 49.88 176ZM30 143.36C26.51 149.88 25.64 155.43 27 160.21C31.73 158.68 35.85 154.87 39.33 148.35C40.02 147.08 40.61 145.75 41.09 144.38C41.57 143.01 41.94 141.61 42.19 140.18C42.45 138.75 42.59 137.3 42.61 135.85C42.63 134.4 42.54 132.96 42.33 131.52C41.02 132.14 39.76 132.87 38.57 133.7C37.38 134.52 36.25 135.44 35.21 136.44C34.16 137.45 33.2 138.53 32.33 139.69C31.45 140.85 30.68 142.08 30 143.36ZM24.68 133.9C29.63 133.39 34.46 130.54 39.24 124.9C40.18 123.8 41.04 122.62 41.79 121.39C42.55 120.15 43.2 118.85 43.75 117.51C44.3 116.16 44.74 114.78 45.06 113.37C45.39 111.95 45.6 110.52 45.7 109.07C44.29 109.4 42.9 109.85 41.56 110.41C40.22 110.97 38.93 111.63 37.7 112.39C36.46 113.16 35.29 114.02 34.19 114.97C33.1 115.92 32.08 116.96 31.15 118.07C26.38 123.71 24.36 128.91 24.68 133.91L24.68 133.9ZM34.22 168.3C32.19 175.4 32.5 181.01 34.84 185.4C39.14 182.91 42.4 178.32 44.4 171.21C44.81 169.82 45.1 168.4 45.28 166.96C45.46 165.52 45.52 164.07 45.47 162.62C45.41 161.17 45.24 159.73 44.96 158.31C44.68 156.88 44.28 155.49 43.77 154.13C42.62 155.02 41.54 155.99 40.55 157.05C39.56 158.11 38.65 159.24 37.84 160.45C37.03 161.65 36.32 162.91 35.71 164.23C35.1 165.55 34.6 166.91 34.21 168.31L34.22 168.3ZM44 102C45.16 101.12 46.24 100.15 47.24 99.1C48.24 98.05 49.15 96.92 49.97 95.73C50.79 94.53 51.51 93.27 52.13 91.96C52.75 90.64 53.26 89.28 53.66 87.89C52.21 87.92 50.77 88.07 49.34 88.33C47.91 88.59 46.51 88.96 45.14 89.45C43.78 89.93 42.45 90.53 41.18 91.22C39.91 91.92 38.69 92.72 37.55 93.61C31.69 98.12 28.61 102.81 27.88 107.73C32.82 108.28 38.14 106.51 44 102ZM97.32 38.31C96.02 37.67 94.67 37.13 93.28 36.71C91.89 36.28 90.47 35.97 89.04 35.77C87.6 35.58 86.15 35.49 84.7 35.53C77.31 35.67 72.04 37.62 68.53 41.14C72.18 44.54 77.51 46.28 84.9 46.14C86.35 46.12 87.8 45.98 89.22 45.73C90.65 45.48 92.06 45.12 93.43 44.64C94.8 44.17 96.13 43.58 97.4 42.89C98.68 42.2 99.9 41.41 101.05 40.53C99.87 39.69 98.62 38.95 97.32 38.31ZM92.58 16.59C86.25 20.41 82.67 24.73 81.39 29.53C86.24 30.66 91.73 29.48 98.06 25.66C99.31 24.92 100.49 24.08 101.6 23.15C102.71 22.22 103.75 21.2 104.7 20.1C105.64 19 106.5 17.83 107.26 16.6C108.03 15.36 108.69 14.07 109.24 12.73C107.8 12.6 106.34 12.58 104.9 12.68C103.45 12.78 102.01 12.99 100.6 13.32C99.19 13.65 97.81 14.09 96.46 14.64C95.12 15.19 93.83 15.84 92.59 16.6L92.58 16.59ZM68.37 18.69C64.8 25.17 63.85 30.7 65.15 35.5C69.9 34 74.07 30.28 77.64 23.79C78.35 22.52 78.95 21.2 79.45 19.84C79.95 18.48 80.33 17.08 80.6 15.65C80.88 14.23 81.03 12.79 81.07 11.34C81.12 9.89 81.04 8.44 80.85 7C79.53 7.61 78.26 8.32 77.05 9.13C75.84 9.94 74.7 10.84 73.64 11.83C72.58 12.83 71.6 13.9 70.71 15.05C69.82 16.2 69.02 17.42 68.33 18.7L68.37 18.69ZM64.96 51.37C57.77 53.07 53.03 56.08 50.34 60.26C54.61 62.79 60.19 63.37 67.39 61.68C68.8 61.36 70.19 60.92 71.53 60.37C72.88 59.83 74.17 59.18 75.41 58.42C76.65 57.67 77.83 56.82 78.93 55.88C80.04 54.93 81.06 53.91 82 52.8C80.67 52.23 79.3 51.77 77.89 51.42C76.49 51.07 75.06 50.83 73.62 50.71C72.17 50.59 70.72 50.59 69.28 50.7C67.84 50.81 66.41 51.03 65 51.37L64.96 51.37ZM45.43 38.41C43.3 45.52 43.54 51.1 45.82 55.52C50.15 53.09 53.45 48.54 55.57 41.46C56 40.07 56.31 38.66 56.51 37.22C56.71 35.78 56.79 34.33 56.75 32.88C56.72 31.43 56.57 29.99 56.3 28.56C56.04 27.14 55.66 25.73 55.17 24.37C54.01 25.24 52.93 26.2 51.92 27.24C50.92 28.28 50 29.4 49.17 30.58C48.34 31.77 47.61 33.02 46.99 34.33C46.36 35.63 45.84 36.98 45.43 38.37L45.43 38.41ZM36.59 82.77C41.33 84.35 46.91 83.74 53.59 80.57C54.9 79.96 56.17 79.24 57.36 78.42C58.56 77.6 59.69 76.69 60.75 75.69C61.8 74.7 62.77 73.62 63.65 72.46C64.53 71.31 65.32 70.09 66 68.81C64.57 68.53 63.13 68.37 61.67 68.32C60.22 68.27 58.76 68.34 57.32 68.53C55.88 68.71 54.46 69.01 53.06 69.43C51.67 69.84 50.31 70.37 49 71C42.34 74.2 38.35 78.14 36.59 82.77ZM31.16 79.03C34.88 75.74 37.14 70.6 37.73 63.23C37.85 61.79 37.86 60.33 37.75 58.89C37.64 57.44 37.41 56.01 37.07 54.6C36.74 53.19 36.28 51.81 35.72 50.47C35.16 49.13 34.5 47.84 33.73 46.61C32.78 47.7 31.92 48.87 31.15 50.11C30.39 51.34 29.73 52.63 29.17 53.97C28.61 55.31 28.16 56.69 27.83 58.1C27.49 59.51 27.27 60.94 27.16 62.39C26.58 69.76 28 75.19 31.16 79.03ZM17.49 73C16.79 74.27 16.19 75.59 15.71 76.96C15.22 78.33 14.84 79.73 14.58 81.15C14.32 82.58 14.17 84.02 14.14 85.47C14.1 86.92 14.19 88.37 14.39 89.81C15.37 97.14 17.9 102.15 21.79 105.24C24.74 101.23 25.89 95.74 24.89 88.41C24.71 86.97 24.41 85.55 24 84.16C23.59 82.77 23.06 81.41 22.44 80.11C21.81 78.8 21.08 77.54 20.25 76.35C19.42 75.16 18.5 74.04 17.49 73ZM7.13 102.17C6.71 103.56 6.41 104.98 6.22 106.42C6.04 107.86 5.96 109.31 6.01 110.76C6.05 112.21 6.21 113.65 6.49 115.07C6.76 116.5 7.15 117.9 7.65 119.26C10.14 126.22 13.68 130.58 18.14 132.78C20.18 128.25 20.12 122.68 17.62 115.68C17.14 114.31 16.55 112.99 15.85 111.71C15.16 110.44 14.36 109.22 13.47 108.08C12.58 106.93 11.6 105.86 10.54 104.87C9.48 103.88 8.35 102.98 7.14 102.17L7.13 102.17ZM3.13 132.87C3.02 134.32 3.02 135.77 3.14 137.21C3.25 138.66 3.49 140.09 3.84 141.5C4.18 142.91 4.64 144.29 5.21 145.62C5.78 146.96 6.46 148.24 7.23 149.47C11.14 155.74 15.51 159.26 20.33 160.47C21.37 155.61 20.13 150.13 16.22 143.86C15.46 142.62 14.6 141.45 13.66 140.35C12.71 139.25 11.68 138.23 10.56 137.3C9.45 136.37 8.27 135.53 7.03 134.78C5.78 134.04 4.48 133.4 3.13 132.86L3.13 132.87ZM28.39 187C28.38 182 26 177 20.87 171.64C19.87 170.59 18.78 169.63 17.63 168.75C16.47 167.88 15.24 167.1 13.96 166.42C12.68 165.74 11.35 165.16 9.97 164.7C8.6 164.23 7.19 163.88 5.76 163.64C5.95 165.08 6.26 166.5 6.68 167.88C7.1 169.27 7.64 170.62 8.27 171.93C8.91 173.23 9.65 174.48 10.49 175.66C11.32 176.85 12.25 177.96 13.27 179C18.39 184.31 23.39 186.83 28.39 187ZM25.37 206.68C31.52 210.79 36.95 212.2 41.84 211.32C40.78 206.46 37.4 201.99 31.25 197.88C30.05 197.07 28.78 196.35 27.47 195.74C26.15 195.13 24.79 194.63 23.39 194.23C22 193.84 20.57 193.56 19.13 193.4C17.69 193.23 16.24 193.18 14.79 193.25C15.28 194.61 15.88 195.94 16.59 197.2C17.29 198.47 18.09 199.68 18.99 200.82C19.89 201.96 20.87 203.02 21.94 204.01C23.01 204.99 24.15 205.88 25.36 206.68L25.37 206.68ZM42.99 231.21C49.87 233.93 55.47 234.16 60.07 232.27C58.01 227.74 53.76 224.08 46.89 221.36C45.55 220.82 44.16 220.39 42.74 220.07C41.33 219.75 39.89 219.54 38.45 219.45C37 219.36 35.55 219.39 34.1 219.53C32.66 219.67 31.23 219.93 29.83 220.3C30.6 221.53 31.46 222.7 32.42 223.79C33.37 224.88 34.41 225.9 35.53 226.82C36.65 227.75 37.84 228.58 39.09 229.32C40.34 230.05 41.65 230.68 43 231.21L42.99 231.21ZM65.39 251.45C72.68 252.66 78.21 251.71 82.31 248.89C79.35 244.9 74.42 242.21 67.13 241C65.7 240.75 64.25 240.62 62.8 240.61C61.36 240.59 59.91 240.7 58.47 240.91C57.04 241.13 55.63 241.46 54.25 241.91C52.86 242.35 51.52 242.9 50.23 243.56C51.24 244.6 52.33 245.56 53.5 246.43C54.66 247.29 55.89 248.06 57.18 248.73C58.46 249.4 59.8 249.97 61.18 250.42C62.56 250.88 63.97 251.22 65.4 251.45L65.39 251.45ZM91.6 266.52C98.98 266.16 104.19 264.07 107.6 260.45C103.87 257.18 98.48 255.59 91.1 255.94C89.65 256 88.21 256.18 86.78 256.47C85.36 256.76 83.97 257.16 82.61 257.67C81.25 258.19 79.94 258.81 78.68 259.53C77.42 260.26 76.23 261.08 75.1 262C76.3 262.8 77.57 263.51 78.89 264.11C80.21 264.71 81.57 265.21 82.96 265.59C84.36 265.97 85.79 266.24 87.23 266.4C88.66 266.56 90.11 266.6 91.56 266.52L91.6 266.52ZM120.37 275.75C127.51 273.85 132.16 270.71 134.73 266.45C130.38 264.03 124.78 263.61 117.64 265.51C116.24 265.87 114.86 266.35 113.54 266.93C112.21 267.52 110.93 268.21 109.71 268.99C108.5 269.78 107.34 270.67 106.27 271.64C105.19 272.61 104.2 273.67 103.29 274.8C104.64 275.33 106.03 275.76 107.44 276.07C108.86 276.38 110.3 276.57 111.75 276.65C113.2 276.73 114.65 276.69 116.09 276.54C117.53 276.39 118.96 276.12 120.36 275.74L120.37 275.75ZM121.2 252.26C126.43 257.5 131.43 259.96 136.43 260.06C136.35 255.09 133.92 250.03 128.71 244.79C127.69 243.76 126.6 242.8 125.43 241.95C124.26 241.09 123.02 240.32 121.73 239.66C120.44 239 119.1 238.45 117.72 238C116.34 237.55 114.92 237.22 113.49 237C113.7 238.44 114.03 239.86 114.47 241.24C114.91 242.63 115.46 243.98 116.11 245.27C116.77 246.57 117.53 247.81 118.38 248.99C119.24 250.16 120.19 251.27 121.22 252.29L121.2 252.26ZM293.2 132.79C291.85 133.33 290.55 133.97 289.3 134.71C288.06 135.46 286.88 136.3 285.77 137.23C284.65 138.16 283.62 139.18 282.67 140.28C281.73 141.38 280.87 142.55 280.11 143.79C276.2 150.06 275 155.54 276 160.4C280.82 159.2 285.19 155.68 289.1 149.4C289.87 148.17 290.55 146.89 291.12 145.55C291.69 144.22 292.15 142.84 292.49 141.43C292.84 140.02 293.08 138.59 293.19 137.14C293.31 135.7 293.31 134.25 293.2 132.8L293.2 132.79ZM289.2 102.1C287.99 102.91 286.86 103.81 285.8 104.8C284.74 105.79 283.76 106.86 282.87 108.01C281.98 109.15 281.18 110.37 280.49 111.64C279.79 112.92 279.2 114.24 278.72 115.61C276.2 122.56 276.2 128.17 278.2 132.71C282.69 130.51 286.19 126.19 288.69 119.19C289.19 117.83 289.58 116.43 289.85 115C290.13 113.58 290.28 112.14 290.33 110.69C290.37 109.24 290.3 107.79 290.11 106.35C289.92 104.91 289.62 103.49 289.2 102.1ZM271.51 88.38C270.53 95.71 271.65 101.21 274.6 105.21C278.49 102.12 281 97.11 282 89.78C282.2 88.35 282.28 86.9 282.25 85.45C282.22 84.01 282.08 82.56 281.81 81.14C281.55 79.72 281.18 78.32 280.69 76.95C280.21 75.59 279.62 74.27 278.92 73C277.91 74.04 276.99 75.16 276.17 76.35C275.34 77.53 274.61 78.78 273.98 80.09C273.35 81.39 272.83 82.74 272.42 84.13C272.01 85.52 271.71 86.94 271.52 88.37L271.51 88.38ZM257.1 148.38C260.59 154.9 264.71 158.71 269.44 160.24C270.79 155.45 269.92 149.91 266.44 143.39C265.76 142.11 264.99 140.88 264.11 139.72C263.24 138.56 262.28 137.48 261.23 136.47C260.19 135.47 259.06 134.55 257.87 133.72C256.68 132.9 255.42 132.17 254.11 131.55C253.9 132.99 253.81 134.43 253.83 135.88C253.85 137.33 253.99 138.78 254.25 140.21C254.5 141.64 254.87 143.04 255.35 144.41C255.83 145.78 256.42 147.11 257.11 148.38L257.1 148.38ZM261.63 185.46C263.96 181.07 264.25 175.47 262.25 168.36C261.86 166.96 261.36 165.6 260.75 164.28C260.14 162.97 259.43 161.7 258.62 160.5C257.81 159.29 256.9 158.16 255.91 157.1C254.92 156.04 253.84 155.07 252.69 154.18C252.18 155.54 251.78 156.93 251.5 158.36C251.22 159.78 251.05 161.22 250.99 162.67C250.94 164.12 251 165.57 251.18 167.01C251.36 168.45 251.65 169.87 252.06 171.26C254.09 178.37 257.32 182.96 261.62 185.45L261.63 185.46ZM257.22 124.97C262 130.62 266.83 133.47 271.78 133.97C272.11 129.01 270.09 123.77 265.31 118.13C264.38 117.02 263.36 115.98 262.27 115.03C261.17 114.08 260 113.22 258.76 112.45C257.53 111.69 256.24 111.03 254.9 110.47C253.56 109.91 252.17 109.46 250.76 109.13C250.86 110.58 251.07 112.01 251.4 113.43C251.72 114.84 252.16 116.22 252.71 117.57C253.26 118.91 253.91 120.21 254.67 121.45C255.42 122.68 256.28 123.86 257.22 124.96L257.22 124.97ZM260.67 50.54C260.11 51.88 259.65 53.26 259.32 54.67C258.98 56.08 258.75 57.51 258.64 58.96C258.53 60.4 258.54 61.86 258.66 63.3C259.23 70.67 261.5 75.81 265.23 79.1C268.4 75.26 269.82 69.83 269.23 62.46C269.12 61.01 268.9 59.58 268.56 58.17C268.23 56.76 267.78 55.38 267.22 54.04C266.66 52.7 266 51.41 265.24 50.18C264.47 48.94 263.61 47.77 262.66 46.68C261.89 47.91 261.23 49.2 260.67 50.54ZM241.23 24.27C240.74 25.63 240.36 27.04 240.1 28.46C239.83 29.89 239.68 31.33 239.65 32.78C239.61 34.23 239.7 35.68 239.89 37.12C240.09 38.56 240.4 39.97 240.83 41.36C242.96 48.42 246.24 52.98 250.58 55.42C252.86 51 253.11 45.39 250.98 38.31C250.57 36.92 250.05 35.57 249.42 34.27C248.79 32.96 248.06 31.71 247.24 30.52C246.41 29.34 245.49 28.22 244.48 27.18C243.48 26.14 242.39 25.18 241.23 24.31L241.23 24.27ZM215.57 7C215.38 8.44 215.3 9.89 215.35 11.34C215.39 12.79 215.55 14.24 215.82 15.66C216.09 17.09 216.48 18.49 216.98 19.85C217.47 21.21 218.08 22.53 218.79 23.8C222.36 30.27 226.53 34.02 231.28 35.49C232.57 30.68 231.63 25.16 228.06 18.68C227.37 17.41 226.57 16.19 225.69 15.04C224.8 13.89 223.82 12.82 222.76 11.83C221.7 10.84 220.56 9.93 219.36 9.13C218.16 8.32 216.89 7.61 215.57 7ZM198.32 25.66C204.65 29.48 210.14 30.64 214.99 29.53C213.71 24.73 210.13 20.41 203.8 16.59C202.56 15.83 201.27 15.18 199.93 14.63C198.58 14.08 197.2 13.64 195.79 13.31C194.38 12.98 192.94 12.77 191.49 12.67C190.05 12.57 188.59 12.59 187.15 12.72C187.7 14.06 188.36 15.35 189.13 16.59C189.89 17.82 190.75 18.99 191.69 20.09C192.64 21.19 193.68 22.21 194.79 23.14C195.9 24.07 197.08 24.91 198.33 25.65L198.32 25.66ZM227.87 41.12C224.35 37.6 219.09 35.65 211.7 35.51C210.25 35.47 208.8 35.56 207.36 35.75C205.93 35.95 204.51 36.26 203.12 36.69C201.73 37.11 200.38 37.65 199.08 38.29C197.78 38.93 196.53 39.67 195.35 40.51C196.5 41.39 197.72 42.18 199 42.87C200.27 43.56 201.6 44.15 202.97 44.62C204.34 45.1 205.75 45.46 207.18 45.71C208.6 45.96 210.05 46.1 211.5 46.12C218.87 46.25 224.22 44.5 227.87 41.12ZM214.4 52.8C215.34 53.9 216.36 54.93 217.46 55.87C218.56 56.81 219.74 57.66 220.97 58.42C222.21 59.17 223.5 59.82 224.85 60.37C226.19 60.92 227.57 61.35 228.98 61.68C236.17 63.38 241.75 62.8 246.03 60.26C243.34 56.08 238.61 53.07 231.41 51.37C230 51.03 228.57 50.81 227.13 50.7C225.69 50.59 224.24 50.59 222.79 50.71C221.35 50.83 219.92 51.07 218.52 51.42C217.11 51.77 215.74 52.23 214.41 52.8L214.4 52.8ZM230.41 68.8C231.09 70.08 231.88 71.3 232.76 72.45C233.64 73.61 234.61 74.69 235.66 75.68C236.72 76.68 237.85 77.59 239.05 78.41C240.24 79.23 241.51 79.95 242.82 80.56C249.53 83.76 255.11 84.34 259.82 82.76C258.07 78.1 254.08 74.16 247.4 70.99C246.09 70.36 244.73 69.83 243.34 69.42C241.94 69 240.52 68.7 239.08 68.52C237.64 68.33 236.18 68.26 234.73 68.31C233.27 68.36 231.83 68.52 230.4 68.8L230.41 68.8ZM242.71 87.8C242.71 87.8 242.72 87.8 242.72 87.8C242.72 87.8 242.72 87.8 242.72 87.8L242.71 87.8ZM242.72 87.8C243.12 89.19 243.63 90.55 244.25 91.87C244.86 93.18 245.58 94.44 246.4 95.64C247.22 96.83 248.13 97.96 249.13 99.01C250.13 100.06 251.22 101.03 252.37 101.91C258.22 106.42 263.55 108.19 268.49 107.64C267.75 102.72 264.68 98.03 258.82 93.52C257.68 92.63 256.46 91.83 255.19 91.13C253.92 90.44 252.59 89.84 251.23 89.36C249.86 88.87 248.46 88.5 247.03 88.24C245.61 87.98 244.17 87.83 242.72 87.8ZM244.5 179.83C243.92 181.16 243.45 182.53 243.1 183.94C242.74 185.34 242.49 186.78 242.37 188.22C242.24 189.66 242.23 191.11 242.33 192.56C242.82 199.94 245.01 205.11 248.69 208.45C251.9 204.66 253.39 199.25 252.9 191.87C252.81 190.42 252.61 188.98 252.29 187.57C251.97 186.15 251.54 184.77 251 183.42C250.46 182.07 249.82 180.77 249.07 179.53C248.32 178.29 247.48 177.11 246.54 176C245.76 177.22 245.08 178.5 244.5 179.83ZM228.3 211.31C227.22 218.62 228.28 224.18 231.17 228.18C235.11 225.14 237.7 220.16 238.78 212.85C239 211.42 239.1 209.97 239.09 208.52C239.08 207.07 238.95 205.62 238.71 204.19C238.46 202.76 238.11 201.36 237.64 199.98C237.17 198.61 236.59 197.28 235.91 196C234.89 197.03 233.95 198.14 233.1 199.32C232.26 200.51 231.51 201.75 230.87 203.05C230.22 204.36 229.68 205.71 229.25 207.09C228.83 208.48 228.51 209.9 228.31 211.34L228.3 211.31ZM209.89 243.81C214.38 241.67 217.97 237.35 220.56 230.43C221.08 229.07 221.48 227.68 221.78 226.26C222.07 224.84 222.25 223.4 222.31 221.95C222.37 220.5 222.32 219.05 222.15 217.61C221.98 216.17 221.7 214.74 221.3 213.35C220.08 214.14 218.93 215.03 217.86 216C216.79 216.98 215.79 218.03 214.89 219.17C213.98 220.3 213.17 221.5 212.46 222.77C211.75 224.03 211.14 225.35 210.64 226.71C208.05 233.64 207.89 239.25 209.89 243.81ZM185.81 254.55C190.65 253.41 195.06 249.94 199.06 243.72C199.85 242.5 200.54 241.23 201.13 239.9C201.71 238.57 202.19 237.2 202.56 235.8C202.92 234.4 203.18 232.97 203.32 231.52C203.45 230.08 203.47 228.63 203.38 227.18C202.02 227.7 200.71 228.32 199.46 229.05C198.2 229.77 197.01 230.6 195.88 231.52C194.76 232.44 193.71 233.44 192.75 234.53C191.79 235.61 190.92 236.77 190.14 238C186.15 244.22 184.81 249.67 185.81 254.55ZM167.72 244.8C162.51 250.07 160.08 255.07 160 260.07C165 260 170 257.52 175.22 252.26C176.25 251.24 177.19 250.14 178.05 248.96C178.9 247.79 179.66 246.55 180.31 245.25C180.96 243.96 181.51 242.61 181.95 241.23C182.39 239.85 182.72 238.43 182.93 237C181.5 237.22 180.08 237.55 178.7 237.99C177.33 238.44 175.98 238.99 174.69 239.65C173.4 240.31 172.17 241.07 171 241.92C169.83 242.78 168.73 243.73 167.71 244.76L167.72 244.8ZM176.09 275.72C177.49 276.1 178.92 276.37 180.36 276.52C181.8 276.67 183.25 276.71 184.7 276.63C186.15 276.55 187.59 276.36 189.01 276.05C190.42 275.74 191.81 275.31 193.16 274.78C192.25 273.65 191.26 272.59 190.18 271.62C189.11 270.65 187.95 269.76 186.74 268.97C185.52 268.19 184.24 267.5 182.91 266.91C181.59 266.33 180.21 265.85 178.81 265.49C171.66 263.59 166.06 264.01 161.72 266.43C164.29 270.73 168.94 273.83 176.08 275.73L176.09 275.72ZM204.86 266.5C206.31 266.58 207.76 266.54 209.2 266.38C210.64 266.23 212.07 265.96 213.47 265.57C214.87 265.19 216.24 264.7 217.55 264.09C218.87 263.49 220.14 262.79 221.35 261.98C220.22 261.06 219.03 260.24 217.77 259.51C216.51 258.79 215.2 258.17 213.84 257.65C212.48 257.14 211.09 256.74 209.67 256.45C208.24 256.16 206.8 255.98 205.35 255.92C197.97 255.56 192.59 257.15 188.85 260.43C192.26 264.05 197.47 266.15 204.85 266.5L204.86 266.5ZM235.22 250.42C236.59 249.97 237.93 249.4 239.22 248.73C240.5 248.06 241.73 247.29 242.9 246.42C244.06 245.56 245.15 244.6 246.16 243.56C244.87 242.9 243.53 242.35 242.14 241.91C240.76 241.46 239.35 241.13 237.92 240.91C236.48 240.7 235.03 240.59 233.59 240.61C232.14 240.62 230.69 240.75 229.26 241C221.97 242.21 217.08 244.89 214.08 248.89C218.18 251.71 223.71 252.66 231 251.45C232.43 251.22 233.84 250.88 235.22 250.42ZM253.41 231.21C254.76 230.68 256.07 230.05 257.32 229.31C258.57 228.58 259.76 227.74 260.87 226.82C261.99 225.89 263.03 224.88 263.98 223.79C264.94 222.7 265.8 221.53 266.57 220.3C265.17 219.93 263.74 219.67 262.3 219.53C260.85 219.39 259.4 219.36 257.95 219.45C256.51 219.54 255.07 219.75 253.66 220.07C252.24 220.39 250.85 220.82 249.51 221.36C242.64 224.08 238.39 227.74 236.33 232.27C240.93 234.21 246.54 233.93 253.41 231.21ZM281.64 193.27C280.19 193.2 278.74 193.25 277.3 193.42C275.86 193.58 274.43 193.86 273.04 194.25C271.64 194.65 270.28 195.15 268.96 195.76C267.65 196.37 266.38 197.09 265.18 197.9C259.03 202 255.65 206.48 254.59 211.34C259.48 212.22 264.91 210.81 271.06 206.7C272.27 205.9 273.41 205.01 274.48 204.03C275.55 203.05 276.54 201.98 277.43 200.84C278.33 199.7 279.13 198.49 279.84 197.22C280.54 195.96 281.14 194.63 281.63 193.27L281.64 193.27ZM283.15 179C284.16 177.96 285.09 176.85 285.93 175.66C286.76 174.47 287.5 173.22 288.13 171.92C288.77 170.62 289.3 169.26 289.71 167.88C290.13 166.49 290.44 165.07 290.63 163.63C289.2 163.87 287.79 164.22 286.42 164.69C285.04 165.15 283.71 165.73 282.43 166.41C281.15 167.09 279.92 167.87 278.76 168.74C277.61 169.62 276.52 170.58 275.52 171.63C270.37 176.94 268 182 268 187C273 186.85 278 184.33 283.15 179Z" />
	<path id="Layer" fill-rule="evenodd" class="shp0" d="M179.77 19.67C157.46 59.48 165.66 112.67 204 143.79L240.44 143.79L240.44 154.33L233.72 154.33C232.46 156.81 231.16 159.27 229.82 161.7C228.48 164.14 227.11 166.56 225.69 168.96C224.28 171.35 222.84 173.73 221.35 176.08C219.87 178.43 218.35 180.76 216.8 183.07L229.06 183.07C229.06 183.07 226.4 188.58 218.13 188.58L78.28 188.58C70.02 188.58 67.35 183.07 67.35 183.07L80.77 183.07C79.27 180.93 77.81 178.77 76.38 176.59C74.96 174.4 73.57 172.19 72.22 169.96C70.87 167.73 69.56 165.47 68.29 163.19C67.02 160.91 65.78 158.61 64.59 156.29L64.59 152.53C68 87.84 115.94 32.37 179.77 19.67ZM130.13 152.6L130.13 132.92C124.6 133.23 119.1 133.88 113.65 134.87C108.21 135.86 102.82 137.19 97.54 138.85C92.26 140.51 87.09 142.49 82.05 144.79C77.01 147.09 72.12 149.7 67.41 152.6L130.13 152.6ZM200.7 148.32C195.95 145.8 191.05 143.57 186.04 141.63C181.02 139.7 175.89 138.07 170.68 136.76C165.46 135.44 160.17 134.45 154.84 133.77C149.51 133.09 144.14 132.73 138.76 132.7L138.76 152.6L197.54 152.6L200.71 148.32L200.7 148.32ZM188.7 136.74C188.68 136.73 188.67 136.73 188.65 136.72C188.66 136.73 188.66 136.73 188.67 136.74L188.7 136.74ZM188.65 136.72C182.15 129.5 176.69 121.39 172.44 112.65C168.18 103.9 165.17 94.59 163.51 85C161.84 75.41 161.53 65.64 162.59 55.97C163.65 46.29 166.06 36.81 169.75 27.81C156.8 31.61 144.47 37.27 133.15 44.62C121.83 51.97 111.64 60.93 102.9 71.22C94.16 81.51 86.97 93.02 81.55 105.38C76.13 117.74 72.54 130.82 70.89 144.22C79.82 139.36 89.25 135.49 99.01 132.67C108.78 129.85 118.82 128.11 128.97 127.46C139.11 126.82 149.3 127.28 159.34 128.84C169.37 130.4 179.2 133.04 188.65 136.72Z" />
	<path id="Layer" class="shp0" d="M142 235L154.41 235C162.68 235 165.35 229.49 165.35 229.49L131.07 229.49C131.07 229.49 133.74 235 142 235Z" />
	<path id="Layer" class="shp0" d="M190.31 217.85L106.11 217.85C106.11 217.85 108.78 223.36 117.04 223.36L179.36 223.36C187.63 223.36 190.3 217.85 190.3 217.85" />
	<path id="Layer" class="shp0" d="M209.32 206.26L87.1 206.26C87.1 206.26 89.77 211.77 98.04 211.77L198.38 211.77C206.65 211.77 209.32 206.26 209.32 206.26Z" />
	<path id="Layer" class="shp0" d="M220.91 194.66L75.51 194.66C75.51 194.66 78.18 200.17 86.44 200.17L210 200.17C218.27 200.17 220.94 194.66 220.94 194.66" />
</svg>